<svg xmlns="http://www.w3.org/2000/svg" viewBox="0 0 100 100" preserveAspectRatio="xMidYMid" width="211" height="211" style="shape-rendering: auto; display: block; background: transparent;" xmlns:xlink="http://www.w3.org/1999/xlink"><g><g transform="rotate(0 50 50)">
  <rect fill="#ffffff" height="12" width="6" ry="4.44" rx="3" y="25" x="47">
    <animate repeatCount="indefinite" begin="-0.4522840343735866s" dur="0.49751243781094534s" keyTimes="0;1" values="1;0" attributeName="opacity"></animate>
  </rect>
</g><g transform="rotate(32.72727272727273 50 50)">
  <rect fill="#ffffff" height="12" width="6" ry="4.44" rx="3" y="25" x="47">
    <animate repeatCount="indefinite" begin="-0.407055630936228s" dur="0.49751243781094534s" keyTimes="0;1" values="1;0" attributeName="opacity"></animate>
  </rect>
</g><g transform="rotate(65.45454545454545 50 50)">
  <rect fill="#ffffff" height="12" width="6" ry="4.44" rx="3" y="25" x="47">
    <animate repeatCount="indefinite" begin="-0.3618272274988693s" dur="0.49751243781094534s" keyTimes="0;1" values="1;0" attributeName="opacity"></animate>
  </rect>
</g><g transform="rotate(98.18181818181819 50 50)">
  <rect fill="#ffffff" height="12" width="6" ry="4.44" rx="3" y="25" x="47">
    <animate repeatCount="indefinite" begin="-0.31659882406151063s" dur="0.49751243781094534s" keyTimes="0;1" values="1;0" attributeName="opacity"></animate>
  </rect>
</g><g transform="rotate(130.9090909090909 50 50)">
  <rect fill="#ffffff" height="12" width="6" ry="4.44" rx="3" y="25" x="47">
    <animate repeatCount="indefinite" begin="-0.27137042062415195s" dur="0.49751243781094534s" keyTimes="0;1" values="1;0" attributeName="opacity"></animate>
  </rect>
</g><g transform="rotate(163.63636363636363 50 50)">
  <rect fill="#ffffff" height="12" width="6" ry="4.44" rx="3" y="25" x="47">
    <animate repeatCount="indefinite" begin="-0.2261420171867933s" dur="0.49751243781094534s" keyTimes="0;1" values="1;0" attributeName="opacity"></animate>
  </rect>
</g><g transform="rotate(196.36363636363637 50 50)">
  <rect fill="#ffffff" height="12" width="6" ry="4.44" rx="3" y="25" x="47">
    <animate repeatCount="indefinite" begin="-0.18091361374943465s" dur="0.49751243781094534s" keyTimes="0;1" values="1;0" attributeName="opacity"></animate>
  </rect>
</g><g transform="rotate(229.0909090909091 50 50)">
  <rect fill="#ffffff" height="12" width="6" ry="4.44" rx="3" y="25" x="47">
    <animate repeatCount="indefinite" begin="-0.13568521031207598s" dur="0.49751243781094534s" keyTimes="0;1" values="1;0" attributeName="opacity"></animate>
  </rect>
</g><g transform="rotate(261.8181818181818 50 50)">
  <rect fill="#ffffff" height="12" width="6" ry="4.44" rx="3" y="25" x="47">
    <animate repeatCount="indefinite" begin="-0.09045680687471733s" dur="0.49751243781094534s" keyTimes="0;1" values="1;0" attributeName="opacity"></animate>
  </rect>
</g><g transform="rotate(294.54545454545456 50 50)">
  <rect fill="#ffffff" height="12" width="6" ry="4.44" rx="3" y="25" x="47">
    <animate repeatCount="indefinite" begin="-0.045228403437358664s" dur="0.49751243781094534s" keyTimes="0;1" values="1;0" attributeName="opacity"></animate>
  </rect>
</g><g transform="rotate(327.27272727272725 50 50)">
  <rect fill="#ffffff" height="12" width="6" ry="4.44" rx="3" y="25" x="47">
    <animate repeatCount="indefinite" begin="0s" dur="0.49751243781094534s" keyTimes="0;1" values="1;0" attributeName="opacity"></animate>
  </rect>
</g><g></g></g><!-- [ldio] generated by https://loading.io --></svg>